<?xml version="1.0" encoding="iso-8859-1"?>
<!-- Uploaded to: SVG Repo, www.svgrepo.com, Generator: SVG Repo Mixer Tools -->
<svg height="800px" width="800px" version="1.1" id="Capa_1" xmlns="http://www.w3.org/2000/svg" xmlns:xlink="http://www.w3.org/1999/xlink" 
	 viewBox="0 0 60.996 60.996" xml:space="preserve">
<g>
	<g>
		<path style="fill:#010002;" d="M33.659,21.689c-2.03,0.175-5.661,0.968-7.428-0.522c-1.156-0.976-2.122-2.233-3.059-3.514
			l0.364-1.231c0.822-2.778-0.765-5.697-3.543-6.52c-2.777-0.822-5.698,0.765-6.52,3.543L8.292,30.96
			c-0.586,1.981,0.056,4.028,1.477,5.341c-0.152,0.383-0.242,0.818-0.242,1.312c0,6.69,0,13.383,0,20.073
			c0,4.413,6.843,4.413,6.843,0c0-6.69,0-13.383,0-20.073c0-0.299-0.033-0.574-0.092-0.832c0.965-0.656,1.719-1.639,2.077-2.845
			l2.951-9.976c0.587,0.646,1.211,1.246,1.904,1.755c2.95,2.167,7.023,1.741,10.447,1.447C37.15,26.863,37.179,21.386,33.659,21.689
			z"/>
		<path style="fill:#010002;" d="M38.208,31.51c0,0-1.189,11.125,11.462,11.125l3.251,1.083V31.51H38.208z"/>
		<path style="fill:#010002;" d="M38.963,20.084c0.354-0.285,0.743-0.593,1.203-0.822c0.448-0.25,0.969-0.409,1.504-0.457
			c0.541-0.054,1.091,0.092,1.595,0.331c0.512,0.239,0.959,0.627,1.364,1.047c0.812,0.853,1.421,1.9,1.921,2.907
			c0.499,1.009,0.876,2,1.17,2.856c0.295,0.857,0.504,1.584,0.641,2.093c0.136,0.515,0.197,0.795,0.197,0.795l1.323-0.346
			c0,0-0.092-0.315-0.271-0.832c-0.178-0.521-0.444-1.258-0.812-2.124c-0.367-0.866-0.829-1.866-1.426-2.887
			c-0.598-1.017-1.312-2.08-2.268-2.952c-0.477-0.431-1.006-0.829-1.613-1.065c-0.6-0.236-1.256-0.357-1.866-0.254
			c-0.604,0.096-1.16,0.314-1.616,0.611c-0.471,0.277-0.85,0.623-1.189,0.939c-0.326,0.335-0.625,0.64-0.85,0.944
			c-0.238,0.292-0.443,0.548-0.59,0.776c-0.305,0.444-0.479,0.698-0.479,0.698s0.189-0.241,0.525-0.663
			c0.161-0.215,0.381-0.456,0.639-0.728C38.31,20.668,38.622,20.388,38.963,20.084z"/>
		<circle style="fill:#010002;" cx="23.753" cy="4.681" r="4.681"/>
	</g>
</g>
</svg>